:SAMPLES-PER-SECOND 30
:FULLY-SPECIFIED
:DEGREES
1485
root  42.7528 38.6539 -15.2013 177.851 -75.5729 178.985
RightUpLeg  3.53861 -8.53625 -0.1963
RightLeg  14.6422 11.7143 2.98255
RightFoot  -16.1815 -0.243313 -3.17087
RightToes  -8.14909e-010 0 -3.6325e-017
Spine  7.66675 0.405274 9.43957
Spine1  4.96387 0.89895 0.456269
HEad  -24.6991 20.5441 -9.48103
LeftShoulder1  -0.4695 4.81504 -29.648
LeftArm  15.6842 -5.50482 -54.8043
LeftForeArm  18.2219 -22.404 -4.32195
LeftHand  0.0245033 6.58214 5.36889
RightShoulder  -0.742288 -5.7923 25.7935
RightArm  3.65674 -12.6408 27.9074
RightForeArm  1.72232 7.09688 2.19183
RightHand  -0.200577 5.55905 -2.44771
LeftUpLeg  -20.6579 -3.0521 0.449924
LeftLeg  21.8162 -1.81834 -0.490232
LeftFoot  6.96207 0.727874 -4.77175
LeftToes  1.648e-009 -9.21574e-011 2.55256e-011
1486
root  42.6878 38.6587 -15.2774 178.484 -74.9784 178.349
RightUpLeg  3.66233 -8.47264 -0.295409
RightLeg  14.6018 12.2156 2.96344
RightFoot  -16.3971 -0.244798 -3.03216
RightToes  -8.14909e-010 0 -3.6325e-017
Spine  7.49162 0.398852 9.36339
Spine1  5.54798 0.92155 0.281458
HEad  -25.6023 21.3027 -10.5102
LeftShoulder1  -0.483821 4.84347 -29.9654
LeftArm  11.0125 -4.50959 -53.6971
LeftForeArm  21.895 -17.7163 -6.27721
LeftHand  0.0510856 7.5455 4.57285
RightShoulder  -0.739382 -5.76445 26.0347
RightArm  2.96608 -13.2845 30.5015
RightForeArm  2.15467 5.92443 1.9974
RightHand  -0.248667 4.55839 -3.18533
LeftUpLeg  -21.7025 -1.74998 -0.0438691
LeftLeg  24.1268 -2.26736 -0.793884
LeftFoot  6.09869 0.51376 -3.59165
LeftToes  1.648e-009 -9.21574e-011 2.55256e-011
1487
root  42.5642 38.6646 -15.3696 179.269 -74.4911 177.807
RightUpLeg  3.67206 -8.5987 -0.490359
RightLeg  14.4679 12.8878 3.14992
RightFoot  -16.4849 -0.25563 -3.20979
RightToes  -8.14909e-010 0 -3.6325e-017
Spine  7.93816 0.589136 9.16828
Spine1  4.85044 1.10401 0.278291
HEad  -25.6695 21.1494 -11.0692
LeftShoulder1  -0.503976 4.87916 -30.4867
LeftArm  3.11208 -2.90245 -52.1206
LeftForeArm  29.3423 -12.4583 -8.49158
LeftHand  0.0548514 7.67205 4.66231
RightShoulder  -0.849641 -6.02771 27.0766
RightArm  3.82136 -13.7068 32.2145
RightForeArm  4.026 5.41686 2.33315
RightHand  -0.260623 4.40363 -3.37773
LeftUpLeg  -22.4498 -0.351354 -0.486195
LeftLeg  24.7633 -3.43971 -1.40773
LeftFoot  4.94043 0.465488 -3.46995
LeftToes  1.648e-009 -9.21574e-011 2.55256e-011
1488
root  42.3825 38.7129 -15.4762 -179.014 -74.2009 176.214
RightUpLeg  4.12809 -8.62794 -0.931313
RightLeg  13.7933 13.3706 3.01718
RightFoot  -16.466 -0.249242 -3.08234
RightToes  -8.14909e-010 0 -3.6325e-017
Spine  8.02124 0.634395 8.78406
Spine1  4.82756 1.18737 -0.0795338
HEad  -25.8627 21.0298 -11.6427
LeftShoulder1  -0.587384 5.09004 -30.8799
LeftArm  -2.08545 -1.13663 -50.4708
LeftForeArm  33.877 -8.01953 -9.24122
LeftHand  0.064644 8.90392 3.51419
RightShoulder  -0.860976 -6.02091 27.6129
RightArm  4.19334 -14.3439 35.0501
RightForeArm  7.92264 5.76813 2.55747
RightHand  -0.166264 4.71067 -2.19599
LeftUpLeg  -22.4545 0.487074 -1.24011
LeftLeg  23.4891 -3.42541 -1.30653
LeftFoot  4.1917 0.488281 -3.76207
LeftToes  1.648e-009 -9.21574e-011 2.55256e-011
1489
root  42.144 38.736 -15.5762 -177.773 -74.6938 175.331
RightUpLeg  4.57331 -8.64586 -1.1163
RightLeg  12.9691 13.0261 2.81704
RightFoot  -16.6399 -0.241468 -2.78812
RightToes  -8.14909e-010 0 -3.6325e-017
Spine  7.98902 0.730138 8.27246
Spine1  4.54403 1.13343 0.253596
HEad  -26.2212 20.4035 -12.0832
LeftShoulder1  -0.631746 5.19448 -31.215
LeftArm  -4.36763 1.20061 -49.2583
LeftForeArm  36.4928 -5.05078 -8.9295
LeftHand  0.0528554 9.32024 2.91698
RightShoulder  -0.892106 -6.10607 27.7037
RightArm  4.57388 -15.5552 37.962
RightForeArm  11.7946 7.36191 2.85454
RightHand  -0.131263 4.34586 -1.84282
LeftUpLeg  -22.3816 0.775924 -1.83585
LeftLeg  20.9727 -3.23576 -1.0568
LeftFoot  3.43607 0.378739 -3.08033
LeftToes  1.648e-009 -9.21574e-011 2.55256e-011
1490
root  41.8393 38.77 -15.6939 -175.994 -74.972 173.931
RightUpLeg  5.08793 -8.65601 -1.4379
RightLeg  12.1138 12.8747 2.60194
RightFoot  -16.776 -0.233519 -2.52898
RightToes  -8.14909e-010 0 -3.6325e-017
Spine  7.63123 0.953995 7.73992
Spine1  4.64709 1.30319 0.188007
HEad  -26.5164 19.9674 -12.0223
LeftShoulder1  -0.651867 5.24075 -31.3783
LeftArm  -5.4574 3.95315 -47.8915
LeftForeArm  37.4138 -3.55403 -8.26249
LeftHand  0.0223437 9.91562 1.88139
RightShoulder  -0.928615 -6.1634 28.3352
RightArm  4.88025 -16.2211 40.4171
RightForeArm  14.0148 9.0313 3.16186
RightHand  -0.144379 5.17609 -1.90141
LeftUpLeg  -21.636 1.54144 -2.58944
LeftLeg  17.0578 -2.03413 -0.370592
LeftFoot  3.03043 0.275998 -2.3387
LeftToes  1.648e-009 -9.21574e-011 2.55256e-011
1491
root  41.5052 38.7945 -15.8133 -173.965 -75.614 172.568
RightUpLeg  5.33161 -8.48538 -1.52187
RightLeg  11.2645 12.125 2.22933
RightFoot  -16.8252 -0.23491 -2.53146
RightToes  -8.14909e-010 0 -3.6325e-017
Spine  6.94077 1.07637 7.26837
Spine1  4.86721 1.38227 -0.00173826
HEad  -26.383 19.9263 -12.3098
LeftShoulder1  -0.6801 5.3103 -31.4853
LeftArm  -5.92557 7.05171 -46.2703
LeftForeArm  38.133 -3.7109 -8.02536
LeftHand  -0.0199647 10.5772 0.80815
RightShoulder  -1.03243 -6.40988 28.9923
RightArm  5.64262 -16.2718 42.7014
RightForeArm  15.7359 11.0109 3.53289
RightHand  -0.0567144 5.47366 -0.921184
LeftUpLeg  -20.9105 2.00158 -3.23968
LeftLeg  12.6416 -0.0684561 0.123055
LeftFoot  3.32229 0.212936 -1.80997
LeftToes  1.648e-009 -9.21574e-011 2.55256e-011
1492
root  41.0821 38.8255 -15.9014 -171.083 -75.8664 169.971
RightUpLeg  6.07778 -8.39689 -2.09377
RightLeg  10.4063 11.8238 1.73256
RightFoot  -17.1319 -0.220321 -2.06623
RightToes  -8.14909e-010 0 -3.6325e-017
Spine  6.48721 1.31145 6.60648
Spine1  5.14919 1.66648 -0.355913
HEad  -26.5504 19.0363 -12.2223
LeftShoulder1  -0.728863 5.43012 -31.6641
LeftArm  -6.5417 10.1992 -44.6229
LeftForeArm  38.0418 -4.20494 -7.68337
LeftHand  -0.059149 10.6595 -0.0329818
RightShoulder  -1.02576 -6.37463 29.1892
RightArm  6.75949 -15.9307 44.6659
RightForeArm  15.657 12.6472 3.87737
RightHand  -0.0664546 4.9796 -1.04097
LeftUpLeg  -19.2087 1.46101 -3.65619
LeftLeg  7.74782 4.07563 0.0738888
LeftFoot  3.84439 0.193768 -1.63389
LeftToes  1.648e-009 -9.21574e-011 2.55256e-011
1493
root  40.571 38.8288 -15.9999 -168.647 -76.237 167.803
RightUpLeg  6.97459 -8.49433 -2.71372
RightLeg  9.71342 11.8362 1.58204
RightFoot  -17.4799 -0.20357 -1.59241
RightToes  -8.14909e-010 0 -3.6325e-017
Spine  5.08126 1.66092 6.2642
Spine1  6.56993 2.13089 -1.02671
HEad  -26.3607 18.8328 -11.9243
LeftShoulder1  -0.608385 5.14522 -30.9214
LeftArm  -6.86043 13.1135 -43.7518
LeftForeArm  36.8917 -4.84444 -7.48497
LeftHand  -0.070132 10.138 -0.326546
RightShoulder  -1.04799 -6.4214 29.3683
RightArm  8.14103 -14.6032 46.3911
RightForeArm  14.9669 13.5777 4.21693
RightHand  -0.120364 5.27272 -1.62295
LeftUpLeg  -17.3728 0.577117 -3.79084
LeftLeg  3.45273 8.01707 -0.652525
LeftFoot  4.34314 0.126867 -1.10665
LeftToes  1.648e-009 -9.21574e-011 2.55256e-011
1494
root  39.9675 38.7891 -16.0904 -166.42 -76.9065 166.029
RightUpLeg  7.75254 -8.57151 -3.07051
RightLeg  9.2813 11.2555 1.42004
RightFoot  -17.9664 -0.1923 -1.22196
RightToes  -8.14909e-010 0 -3.6325e-017
Spine  4.92659 1.91484 6.16218
Spine1  5.6283 2.55109 -1.7436
HEad  -25.4041 17.4301 -11.2604
LeftShoulder1  -0.58813 5.10119 -30.6666
LeftArm  -6.87644 16.0581 -42.1308
LeftForeArm  35.0664 -5.37228 -7.41186
LeftHand  -0.0265519 10.4835 0.643629
RightShoulder  -1.12871 -6.59701 29.9661
RightArm  11.3907 -13.6312 46.1703
RightForeArm  14.5045 15.2511 4.57691
RightHand  -0.108544 5.14494 -1.53182
LeftUpLeg  -15.7034 0.179796 -4.1974
LeftLeg  0.239898 10.5715 -1.24137
LeftFoot  4.81977 0.133677 -1.16755
LeftToes  1.648e-009 -9.21574e-011 2.55256e-011
1495
root  39.2905 38.7654 -16.1704 -162.339 -77.2248 162.051
RightUpLeg  9.00026 -8.88612 -4.22699
RightLeg  8.81598 11.2968 1.36512
RightFoot  -18.5552 -0.182862 -0.910823
RightToes  -8.14909e-010 0 -3.6325e-017
Spine  3.95501 2.20879 5.4546
Spine1  6.26138 3.04247 -2.51418
HEad  -24.8398 16.5773 -10.6689
LeftShoulder1  -0.597572 5.12861 -30.6215
LeftArm  -7.40824 17.8976 -40.84
LeftForeArm  33.4249 -5.65434 -7.00985
LeftHand  -0.00612634 11.1554 1.0483
RightShoulder  -1.02966 -6.37483 29.3229
RightArm  14.1506 -12.1161 46.8247
RightForeArm  14.4167 16.3533 4.76281
RightHand  -0.0587917 6.30846 -0.925945
LeftUpLeg  -14.1523 0.175646 -5.2721
LeftLeg  -1.42739 12.2988 -1.68821
LeftFoot  7.18195 -0.128374 0.513275
LeftToes  1.648e-009 -9.21574e-011 2.55256e-011
1496
root  38.5555 38.747 -16.2684 -156.274 -77.9345 155.784
RightUpLeg  10.8319 -8.91155 -5.39395
RightLeg  8.02579 10.6351 0.903482
RightFoot  -18.8952 -0.149563 -0.328067
RightToes  -8.14909e-010 0 -3.6325e-017
Spine  3.92725 2.40168 3.90552
Spine1  5.79664 3.32001 -2.7424
HEad  -23.7204 15.5904 -9.82954
LeftShoulder1  -0.608639 5.14979 -30.8112
LeftArm  -7.63737 19.0947 -39.0985
LeftForeArm  32.8122 -5.64573 -6.69225
LeftHand  -0.0287009 9.70697 0.637372
RightShoulder  -1.00582 -6.32223 29.1388
RightArm  16.6885 -10.6527 46.1868
RightForeArm  13.6207 17.2708 4.84727
RightHand  -0.166365 5.54398 -2.07831
LeftUpLeg  -13.2996 -0.0511052 -6.72477
LeftLeg  -0.984613 11.8927 -1.77822
LeftFoot  7.9983 -0.589192 3.18511
LeftToes  1.648e-009 -9.21574e-011 2.55256e-011
1497
root  37.8211 38.703 -16.3305 -147.044 -78.9481 146.22
RightUpLeg  12.2467 -9.54664 -7.09799
RightLeg  8.63935 10.1472 1.12835
RightFoot  -19.2678 -0.12517 0.0722367
RightToes  -8.14909e-010 0 -3.6325e-017
Spine  3.83966 2.32604 3.14928
Spine1  5.58955 3.54394 -4.16248
HEad  -22.4103 13.9647 -9.12314
LeftShoulder1  -0.539616 4.99075 -30.1441
LeftArm  -7.78843 18.8135 -38.2848
LeftForeArm  32.6851 -5.14697 -6.50544
LeftHand  -0.0278431 9.68482 0.603413
RightShoulder  -1.01959 -6.34853 29.2909
RightArm  16.8269 -9.07305 45.4698
RightForeArm  13.4682 17.6403 4.74674
RightHand  -0.115473 5.7577 -1.52699
LeftUpLeg  -13.1138 -1.10766 -8.64199
LeftLeg  1.29057 10.996 -1.20528
LeftFoot  7.47627 -0.94634 5.4332
LeftToes  1.648e-009 -9.21574e-011 2.55256e-011
